<svg xmlns="http://www.w3.org/2000/svg" data-name="Layer 1" viewBox="0 0 32 32"><path fill="#fff" d="M26.14 24.61a1.79 1.79 0 1 0 1.78 1.78 1.78 1.78 0 0 0-1.78-1.78zm0 2.6a.82.82 0 1 1 .81-.82.82.82 0 0 1-.81.82zM7.8 24.61a1.79 1.79 0 1 0 1.78 1.78 1.78 1.78 0 0 0-1.78-1.78zm0 2.6a.82.82 0 1 1 .82-.82.82.82 0 0 1-.82.82z"/><path fill="#fff" d="m31.93 18.47-2.79-4.65-.1-.18a4.61 4.61 0 0 0-4-2.37h-4.71V7a.48.48 0 0 0-.48-.49h-4.42a10.78 10.78 0 0 0 .06-1.73.48.48 0 0 0-.49-.42c-.67 0-1.65-.18-2-2.09a.49.49 0 0 0-.48-.4H7.81a.48.48 0 0 0-.48.39C7 4.18 6 4.38 5.34 4.36a.48.48 0 0 0-.49.45 9.54 9.54 0 0 0 .06 1.73H.48A.49.49 0 0 0 0 7v19.4a.49.49 0 0 0 .48.48H4.1a3.74 3.74 0 0 0 7.41 0h10.93a3.73 3.73 0 0 0 7.4 0h1.68a.49.49 0 0 0 .48-.48v-7.68a.43.43 0 0 0-.07-.25ZM8.2 2.84h3.94a2.83 2.83 0 0 0 2.39 2.47A11.87 11.87 0 0 1 14.4 7a7.82 7.82 0 0 1-4.23 6.15A7.79 7.79 0 0 1 5.94 7a10.73 10.73 0 0 1-.14-1.69 2.83 2.83 0 0 0 2.4-2.47Zm-.39 26.32a2.77 2.77 0 1 1 2.76-2.76 2.77 2.77 0 0 1-2.76 2.76Zm11.56-17.41v14.16h-7.86V25.61l-.06-.22v-.12l-.17-.27v-.08l-.15-.32a.35.35 0 0 1 0-.08L11 24.3l-.08-.1a1.09 1.09 0 0 0-.13-.17l-.09-.11-.14-.15-.11-.11-.14-.13-.12-.09-.19-.1-.12-.09-.17-.1-.13-.07-.23-.08-.14-.06-.21-.08-.14-.05h-.69a2.17 2.17 0 0 0-.36 0 2.23 2.23 0 0 0-.37 0h-.7l-.15.05-.19.07-.14.07-.17.09-.09.06-.16.1-.13.09-.16.12-.12.09-.14.13-.11.11-.18.15a.52.52 0 0 0-.1.11l-.13.17-.07.1-.14.22v.08a1.87 1.87 0 0 0-.15.32s0 0 0 .08l-.09.25v.12l-.06.22V25.91H1V7.51h4.05v.17l.1.32v.19a2.68 2.68 0 0 0 .07.27l.06.2.08.26c0 .07 0 .14.07.22a2.6 2.6 0 0 0 .1.25c0 .08 0 .15.08.22l.11.26.1.21.13.26a2.12 2.12 0 0 0 .11.21l.14.25a2.53 2.53 0 0 1 .13.22l.16.24.15.21.18.24.16.2.21.23.17.19.24.23.19.18.26.22.2.16.31.21.2.15.37.21a1.18 1.18 0 0 0 .19.11 5.59 5.59 0 0 0 .6.3.65.65 0 0 0 .2 0 .43.43 0 0 0 .19 0c.21-.09.41-.19.61-.3l.18-.1.37-.22.21-.14a3.3 3.3 0 0 0 .3-.22l.2-.16.27-.22.18-.17.24-.23.17-.19c.07-.08.15-.16.21-.24s.11-.13.16-.19l.19-.25a2.43 2.43 0 0 1 .14-.2L14 11a2.39 2.39 0 0 0 .13-.21 2.15 2.15 0 0 0 .14-.26l.12-.21.12-.26a2 2 0 0 0 .1-.21c0-.09.08-.17.11-.26l.09-.21.09-.27c0-.07.05-.14.07-.2l.03-.28a1.33 1.33 0 0 0 .05-.19c0-.09 0-.19.08-.28s0-.12 0-.18 0-.19.06-.29a.94.94 0 0 0 0-.16h4.09Zm9.08 2.81L31 18.72h-5.56A1.75 1.75 0 0 1 23.69 17v-2.44Zm-2.31 14.6a2.77 2.77 0 1 1 2.77-2.76 2.77 2.77 0 0 1-2.77 2.76ZM31 25.91h-1.15V25.61a1.74 1.74 0 0 0-.05-.22.56.56 0 0 1 0-.12l-.19-.27v-.08l-.15-.32-.05-.08a2.53 2.53 0 0 0-.13-.22l-.08-.1a1.09 1.09 0 0 0-.13-.17l-.07-.09-.14-.15a1.14 1.14 0 0 0-.11-.11l-.14-.13-.12-.09-.15-.12-.13-.09-.17-.1-.13-.07-.23-.08-.14-.06-.19-.07-.14-.05h-.7a2.36 2.36 0 0 0-.37 0 2.23 2.23 0 0 0-.37 0h-.7l-.14.05-.19.07-.14.06-.18.09-.14.07-.16.1-.13.09-.16.12-.11.09-.15.13-.11.11-.13.15-.1.11-.12.17-.08.1a2.53 2.53 0 0 0-.13.22.35.35 0 0 0 0 .08 1.87 1.87 0 0 0-.15.32v.08a1.06 1.06 0 0 0-.09.25.56.56 0 0 0 0 .12l-.06.22V25.92h-2.1V12.24H25a3.6 3.6 0 0 1 2.82 1.35h-4.61a.48.48 0 0 0-.49.48V17a2.72 2.72 0 0 0 2.72 2.71H31Z"/><path fill="#04FF00" d="M9.16 9.64a.52.52 0 0 0 .35.14.51.51 0 0 0 .34-.14L12.45 7a.49.49 0 1 0-.69-.69l-2.25 2.3-.94-.94a.49.49 0 0 0-.69 0 .51.51 0 0 0 0 .69Z"/></svg>