<svg xmlns="http://www.w3.org/2000/svg" width="20" height="20" viewBox="0 0 14 14" data-prefix="i13cti2mc">
    <path fill="#fff" data-name="1.svg"
        d="M10.21 14h-.03a8.058 8.058 0 0 1-3.12-.729.546.546 0 1 1 .43-1 7.081 7.081 0 0 0 2.7.639h.02a3.378 3.378 0 0 0 2.44-.887.975.975 0 0 0-.05-1.37c-1.46-1.416-2.16-1.313-2.8-.688l-1.02 1.014a.55.55 0 0 1-.61.111 11.029 11.029 0 0 1-2.98-2.2l-.07-.072a10.955 10.955 0 0 1-2.2-2.984.548.548 0 0 1 .11-.608l1.01-1.021c.63-.642.73-1.335-.69-2.8a.984.984 0 0 0-1.37-.049 3.381 3.381 0 0 0-.89 2.461 9.314 9.314 0 0 0 2.98 6.1h.01a12.13 12.13 0 0 0 1.2 1.047.545.545 0 0 1-.66.868 13.681 13.681 0 0 1-1.31-1.137l-.01-.005A10.408 10.408 0 0 1 0 3.813 4.394 4.394 0 0 1 1.22.563a.039.039 0 0 1 .02-.021l.01-.014a2.1 2.1 0 0 1 1.47-.531 2.057 2.057 0 0 1 1.42.635 5.1 5.1 0 0 1 1.34 2.014 2.261 2.261 0 0 1-.66 2.315l-.73.739a11.053 11.053 0 0 0 1.8 2.331l.07.072a11.078 11.078 0 0 0 2.33 1.8l.74-.735a2.265 2.265 0 0 1 2.32-.656 5.045 5.045 0 0 1 2.01 1.338 2.076 2.076 0 0 1 .11 2.888l-.02.015a.04.04 0 0 1-.02.022A4.421 4.421 0 0 1 10.21 14zm.34-8.012a.552.552 0 0 0 .37-.68l-.01-.025a3.041 3.041 0 0 0-.81-1.386 2.985 2.985 0 0 0-1.42-.817.547.547 0 0 0-.29 1.055 1.9 1.9 0 0 1 .94.536 1.981 1.981 0 0 1 .53.921l.01.027a.547.547 0 0 0 .52.392.553.553 0 0 0 .16-.023zm2.87.686a6.047 6.047 0 0 0-6.06-6.1h-.03a.547.547 0 1 0 0 1.094h.03a4.973 4.973 0 0 1 4.97 5 .545.545 0 0 0 .54.549h.01a.541.541 0 0 0 .54-.543z"
        fill-rule="evenodd" class="path-i8yfx6b0d">
    </path>
</svg>