<svg width="216" height="64" viewBox="0 0 216 64" fill="none" xmlns="http://www.w3.org/2000/svg">
<path d="M61.8749 34.1222C63.0475 17.6222 50.6222 3.29573 34.1222 2.12313C17.6223 0.950528 3.29579 13.3758 2.12318 29.8758C0.950582 46.3758 13.3759 60.7023 29.8759 61.8749C46.3759 63.0475 60.7023 50.6222 61.8749 34.1222Z" fill="#962983"/>
<path fill-rule="evenodd" clip-rule="evenodd" d="M48.8659 32.005C49.4431 34.891 50.9182 37.3281 52.7139 38.9956C54.4456 40.599 56.4658 41.4327 58.1653 41.2403C58.2616 41.2403 58.3578 41.2082 58.4219 41.2082L58.9029 43.8378C58.7426 43.8698 58.6143 43.9019 58.486 43.9019C55.9848 44.2226 53.1949 43.1002 50.8861 40.9838C50.0524 40.2142 49.2507 39.2842 48.5773 38.2581V43.2926H45.8836V20.6211H48.5773V25.7519C49.2507 24.7257 50.0524 23.7958 50.8861 23.0261C53.1949 20.9097 55.9848 19.7874 58.486 20.108C58.5822 20.108 58.7426 20.1401 58.9029 20.1722L58.4219 22.8017C58.3578 22.8017 58.2936 22.7696 58.1653 22.7696C56.4337 22.5451 54.4456 23.411 52.7139 25.0143C50.9182 26.6818 49.4431 29.1189 48.8659 32.005ZM32.6399 43.2285V43.004V42.9719V42.7475C32.6399 38.8353 33.8905 35.2758 35.8787 32.6784C37.5462 30.4978 39.7588 29.0227 42.26 28.5096V22.8658C38.6044 23.2827 35.3335 25.335 32.8323 28.4776C29.9783 32.1012 28.2467 37.1036 28.2467 42.6192C28.2467 42.6833 28.2467 42.8116 28.2467 42.9399C28.2467 43.004 28.2467 43.0681 28.2467 43.1643L25.553 43.2285C25.553 43.0361 25.553 42.9399 25.553 42.8116C25.553 42.7795 25.553 42.7795 25.553 42.6192C25.553 36.4623 27.5412 30.8505 30.7479 26.8101C34.0188 22.6413 38.5723 20.076 43.6068 20.076H44.9537V21.4228V43.1964H42.26V31.2674C40.6246 31.7484 39.1816 32.8066 38.0272 34.3138C36.3597 36.4623 35.3656 39.4125 35.3656 42.7475V42.9399V43.1643L32.6399 43.2285ZM12.181 43.2285V43.004V42.7795C12.181 38.8673 13.4316 35.3079 15.4198 32.7104C17.0873 30.5299 19.2999 29.0548 21.8012 28.5417V22.8658C18.1455 23.2827 14.8746 25.335 12.4055 28.4776C9.55149 32.1012 7.81986 37.1036 7.81986 42.6192C7.81986 42.6513 7.81986 42.8116 7.81986 42.9399C7.81986 43.004 7.81986 43.0681 7.81986 43.1643L5.12622 43.2285C5.12622 43.0361 5.12622 42.9399 5.12622 42.8116C5.12622 42.8116 5.12622 42.7795 5.12622 42.6192C5.12622 36.4623 7.11439 30.8505 10.3211 26.8101C13.592 22.6413 18.1455 20.076 23.18 20.076H24.4948V21.4228V43.1964H21.8012V31.2995C20.1657 31.7805 18.7227 32.8387 17.5683 34.3459C15.9008 36.4944 14.9067 39.4445 14.9067 42.7795V42.9719V43.1964L12.181 43.2285Z" fill="#FFDD00"/>
<path d="M71.6655 30.0168L79.0089 15.4263H80.6443L87.9877 30.0168H83.9793L83.0494 27.9966H76.6359L75.706 30.0168H71.6655ZM81.5743 24.9182L79.8106 21.1022L78.0469 24.9182H81.5743Z" fill="#962983"/>
<path d="M89.3025 30.0168V15.4263H96.4535C97.9606 15.4263 99.2112 15.8752 100.141 16.741C101.103 17.6068 101.584 18.7292 101.584 20.1081C101.584 21.1022 101.328 21.968 100.847 22.7055C100.366 23.4431 99.6602 23.9882 98.8264 24.3409L102.418 30.0168H98.153L95.3311 24.7899H92.9261V30.0168H89.3025ZM92.9261 18.5047V21.6794H96.1328C96.6459 21.6794 97.0627 21.519 97.3834 21.2304C97.7041 20.9418 97.8644 20.557 97.8644 20.076C97.8644 19.6271 97.7041 19.2423 97.3834 18.9537C97.0627 18.6651 96.6459 18.5047 96.1328 18.5047H92.9261Z" fill="#962983"/>
<path d="M102.803 18.5047V15.4263H116.239V18.5047H111.333V30.0168H107.741V18.5047H102.803Z" fill="#962983"/>
<path d="M121.498 15.4263V30.0168H117.906V15.4263H121.498Z" fill="#962983"/>
<path d="M123.903 15.4263H127.495V20.9739H129.354L133.17 15.4263H137.628L132.433 22.5452L138.109 30.0168H133.555L129.29 24.0523H127.463V30.0168H123.903V15.4263Z" fill="#962983"/>
<path d="M139.263 15.4263H142.855V23.3148C142.855 24.4051 143.175 25.303 143.849 26.0084C144.49 26.6819 145.356 27.0346 146.382 27.0346C147.408 27.0346 148.242 26.6819 148.851 26.0084C149.493 25.335 149.781 24.4372 149.781 23.3148V15.4263H153.405V23.4431C153.405 25.4633 152.763 27.1308 151.449 28.4135C150.134 29.6962 148.466 30.3375 146.382 30.3375C144.298 30.3375 142.566 29.6962 141.251 28.4135C139.937 27.1308 139.263 25.4633 139.263 23.4751V15.4263Z" fill="#962983"/>
<path d="M155.682 15.4263H159.273V26.9384H166.905V30.0168H155.682V15.4263Z" fill="#962983"/>
<path d="M71.6655 49.0006L79.0089 34.41H80.6443L87.9877 49.0006H83.9793L83.0494 46.9804H76.6359L75.706 49.0006H71.6655ZM81.5743 43.9019L79.8106 40.0859L78.0469 43.9019H81.5743Z" fill="#962983"/>
<path d="M89.1101 49.0006V47.3652L96.7742 37.5206H89.2063V34.4421H102.065V36.0776L94.4012 45.9222H102.161V49.0006H89.1101Z" fill="#962983"/>
<path d="M107.934 34.41V49.0006H104.342V34.41H107.934Z" fill="#962983"/>
<path d="M109.184 34.41H113.545L116.977 39.8615L120.408 34.41H124.801L118.772 43.1002V49.0327H115.181V43.0682L109.184 34.41Z" fill="#962983"/>
<path d="M121.851 49.0006L129.194 34.41H130.829L138.173 49.0006H134.164L133.234 46.9804H126.821L125.891 49.0006H121.851ZM131.791 43.9019L130.028 40.0859L128.264 43.9019H131.791Z" fill="#962983"/>
<path d="M144.618 34.41H148.21V39.9577H150.07L153.886 34.41H158.343L153.148 41.5289L158.824 49.0006H154.271L150.006 43.0361H148.178V49.0006H144.586V34.41H144.618Z" fill="#962983"/>
<path d="M159.241 49.0006L166.585 34.41H168.22L175.563 49.0006H171.555L170.625 46.9804H164.212L163.282 49.0006H159.241ZM169.15 43.9019L167.386 40.0859L165.623 43.9019H169.15Z" fill="#962983"/>
<path d="M176.878 34.41H184.446C185.761 34.41 186.851 34.7948 187.685 35.5324C188.518 36.2699 188.935 37.264 188.935 38.4184C188.935 39.6691 188.486 40.6631 187.556 41.4327C188.807 42.1703 189.448 43.3247 189.448 44.8319C189.448 46.0504 188.999 47.0445 188.134 47.8141C187.268 48.5837 186.113 48.9685 184.734 48.9685H176.846V34.41H176.878ZM180.502 37.4885V40.118H183.805C184.221 40.118 184.574 39.9897 184.831 39.7332C185.087 39.4766 185.248 39.156 185.248 38.7712C185.248 38.4184 185.119 38.0978 184.831 37.8412C184.574 37.5847 184.221 37.4564 183.805 37.4564H180.502V37.4885ZM180.502 43.1002V45.9222H184.221C184.67 45.9222 185.023 45.7939 185.312 45.5053C185.6 45.2487 185.761 44.896 185.761 44.4791C185.761 44.0623 185.6 43.7416 185.312 43.485C185.023 43.2285 184.638 43.1002 184.221 43.1002H180.502Z" fill="#962983"/>
<path d="M191.437 34.41H202.788V37.4885H195.06V40.0539H201.217V43.1323H195.06V45.8901H202.885V48.9685H191.437V34.41Z" fill="#962983"/>
<path d="M204.776 34.41H208.368V45.9222H216V49.0006H204.776V34.41Z" fill="#962983"/>
</svg>
